<?xml version="1.0" encoding="UTF-8"?>
<svg version="1.1" xmlns="http://www.w3.org/2000/svg" width="1233" height="1233">
<path d="M0 0 C406.89 0 813.78 0 1233 0 C1233 406.89 1233 813.78 1233 1233 C826.11 1233 419.22 1233 0 1233 C0 826.11 0 419.22 0 0 Z " fill="#FEFEFE" transform="translate(0,0)"/>
<path d="M0 0 C406.89 0 813.78 0 1233 0 C1233 406.89 1233 813.78 1233 1233 C826.11 1233 419.22 1233 0 1233 C0 826.11 0 419.22 0 0 Z M132 119 C132 435.14 132 751.28 132 1077 C448.14 1077 764.28 1077 1090 1077 C1090 984.27 1090 891.54 1090 796 C1070.21047363 795.9906543 1050.42094727 795.98130859 1030.03173828 795.97167969 C1016.81828788 795.96485367 1003.60483775 795.95796043 990.39138794 795.95013428 C989.13229611 795.94939148 989.13229611 795.94939148 987.84776808 795.94863368 C959.59397233 795.93189413 931.34018365 795.90968248 903.08639526 795.88336182 C902.16439774 795.88250431 901.24240022 795.8816468 900.29246339 795.8807633 C880.25539677 795.86209806 860.21833111 795.84254559 840.18126626 795.82207905 C830.35521933 795.81204779 820.52917222 795.80221261 810.703125 795.79248047 C809.23640344 795.79102276 809.23640344 795.79102276 807.74005114 795.7895356 C776.04126521 795.75812349 744.3424878 795.73966096 712.643689 795.72790753 C680.07144095 795.7157619 647.49922848 795.69056447 614.92700414 795.64892386 C610.32733189 795.64304969 605.72765946 795.63732487 601.12798691 795.63169098 C599.77005291 795.63002079 599.77005291 795.63002079 598.38468589 795.62831686 C583.80687126 795.61077109 569.22908399 795.60700068 554.65126022 795.60837079 C539.99874141 795.60945434 525.34629272 795.59605128 510.69380052 795.56783572 C501.98645648 795.55150937 493.27927105 795.54631567 484.5719174 795.55702825 C478.75505941 795.56309019 472.93833851 795.55467232 467.12151262 795.5345077 C463.80723999 795.52343217 460.4935562 795.52083166 457.17924215 795.53148755 C453.60579337 795.54199386 450.03324447 795.52796734 446.45985603 795.50780869 C445.43527991 795.51671239 444.41070378 795.5256161 443.35507989 795.53478962 C434.90439321 795.44317156 427.57948078 793.54043034 421.125 787.875 C414.50187784 780.45334539 413.253955 772.37343984 413.55859375 762.625 C414.58722352 754.17749176 418.52154088 748.57270334 425.0859375 743.3359375 C432.2010649 738.36986899 440.59078636 738.85306625 448.92081261 738.8613348 C450.58242667 738.85707147 450.58242667 738.85707147 452.27760869 738.85272202 C456.00973608 738.84436402 459.74183247 738.84310593 463.47396851 738.84178162 C466.16851842 738.83721702 468.86306499 738.83225901 471.55761302 738.82681805 C477.42640787 738.81576213 483.29519843 738.80838969 489.16400146 738.80341911 C497.89071165 738.79601139 506.61740684 738.78292783 515.3441082 738.76867336 C530.02344199 738.74485682 544.70277844 738.72565516 559.38212204 738.70907402 C573.91872904 738.69263907 588.45533107 738.67415886 602.99193192 738.65294075 C604.34716041 738.65096434 604.34716041 738.65096434 605.72976726 738.648948 C610.31802283 738.64224601 614.90627835 738.63550742 619.49453385 738.62875474 C652.00204769 738.58097826 684.50956617 738.53779709 717.01708984 738.49731445 C748.59977557 738.45797304 780.18245745 738.41655257 811.76513672 738.37231445 C812.73847202 738.37095192 813.71180731 738.36958939 814.71463762 738.36818558 C824.48917671 738.35450033 834.26371573 738.34077278 844.03825472 738.32701423 C863.95052111 738.29898689 883.8627879 738.2712419 903.77505493 738.2436676 C904.69060997 738.2423994 905.60616501 738.2411312 906.54946414 738.23982458 C934.61503632 738.20096385 962.68060993 738.16329997 990.7461853 738.1268158 C991.54307468 738.1257794 992.33996407 738.12474301 993.16100161 738.12367522 C1025.44066679 738.08171217 1057.7203336 738.04101526 1090 738 C1090 645.6 1090 553.2 1090 458 C1067.30476563 457.97421875 1044.60953125 457.9484375 1021.2265625 457.921875 C1006.87108564 457.89671644 992.51562065 457.87057905 978.16015625 457.83984375 C970.61995504 457.82375175 963.07975338 457.8079083 955.53955078 457.79248047 C954.59452481 457.79053653 953.64949885 457.78859259 952.67583573 457.78658974 C937.42423368 457.75557916 922.17264667 457.73859733 906.92101903 457.72680578 C891.26573606 457.71438957 875.61053196 457.68687753 859.95529878 457.64538693 C850.29716841 457.62026501 840.63916886 457.60688177 830.98100536 457.60857043 C824.35572848 457.60860021 817.73058473 457.59395098 811.10535975 457.56783572 C807.28438487 457.55320531 803.463683 457.54497337 799.64268494 457.55419731 C795.49457335 457.56404121 791.34718117 457.54293642 787.1991272 457.51898193 C785.39851033 457.53062256 785.39851033 457.53062256 783.56151736 457.54249835 C773.54650192 457.44019486 765.08473222 455.15408625 757.6953125 448.09375 C752.1514163 441.24691045 751.26824004 432.92793886 751.55859375 424.3671875 C752.62602563 416.22447707 756.5502021 410.76133848 762.64453125 405.47265625 C770.25538769 400.71429327 777.23833266 400.56618846 785.99658203 400.60127258 C787.94856428 400.59130234 787.94856428 400.59130234 789.93998051 400.58113068 C793.53626217 400.5631585 797.13233677 400.56365586 800.72865272 400.56726015 C804.61269936 400.56788524 808.49667728 400.55125228 812.38069153 400.53674316 C819.10478223 400.51397367 825.82882118 400.5020749 832.552948 400.49761391 C842.27482523 400.49114831 851.99660899 400.46820371 861.71844852 400.44127061 C877.49246164 400.39801676 893.26647081 400.368042 909.04052734 400.34643555 C924.3611851 400.32542166 939.68181045 400.29810886 955.00244141 400.26245117 C955.95684589 400.26023766 956.91125036 400.25802415 957.89457619 400.25574356 C965.35893507 400.23838268 972.82329308 400.22065713 980.28765082 400.20281637 C1016.85841377 400.11550094 1053.42916228 400.0599861 1090 400 C1090 307.27 1090 214.54 1090 119 C773.86 119 457.72 119 132 119 Z " fill="#FEFEFE" transform="translate(0,0)"/>
<path d="M0 0 C355.74 0 711.48 0 1078 0 C1078 355.74 1078 711.48 1078 1078 C722.26 1078 366.52 1078 0 1078 C0 722.26 0 366.52 0 0 Z M60 60 C60 376.14 60 692.28 60 1018 C376.14 1018 692.28 1018 1018 1018 C1018 925.27 1018 832.54 1018 737 C998.21047363 736.9906543 978.42094727 736.98130859 958.03173828 736.97167969 C944.81828788 736.96485367 931.60483775 736.95796043 918.39138794 736.95013428 C917.13229611 736.94939148 917.13229611 736.94939148 915.84776808 736.94863368 C887.59397233 736.93189413 859.34018365 736.90968248 831.08639526 736.88336182 C830.16439774 736.88250431 829.24240022 736.8816468 828.29246339 736.8807633 C808.25539677 736.86209806 788.21833111 736.84254559 768.18126626 736.82207905 C758.35521933 736.81204779 748.52917222 736.80221261 738.703125 736.79248047 C737.23640344 736.79102276 737.23640344 736.79102276 735.74005114 736.7895356 C704.04126521 736.75812349 672.3424878 736.73966096 640.643689 736.72790753 C608.07144095 736.7157619 575.49922848 736.69056447 542.92700414 736.64892386 C538.32733189 736.64304969 533.72765946 736.63732487 529.12798691 736.63169098 C527.77005291 736.63002079 527.77005291 736.63002079 526.38468589 736.62831686 C511.80687126 736.61077109 497.22908399 736.60700068 482.65126022 736.60837079 C467.99874141 736.60945434 453.34629272 736.59605128 438.69380052 736.56783572 C429.98645648 736.55150937 421.27927105 736.54631567 412.5719174 736.55702825 C406.75505941 736.56309019 400.93833851 736.55467232 395.12151262 736.5345077 C391.80723999 736.52343217 388.4935562 736.52083166 385.17924215 736.53148755 C381.60579337 736.54199386 378.03324447 736.52796734 374.45985603 736.50780869 C373.43527991 736.51671239 372.41070378 736.5256161 371.35507989 736.53478962 C362.90439321 736.44317156 355.57948078 734.54043034 349.125 728.875 C342.50187784 721.45334539 341.253955 713.37343984 341.55859375 703.625 C342.58722352 695.17749176 346.52154088 689.57270334 353.0859375 684.3359375 C360.2010649 679.36986899 368.59078636 679.85306625 376.92081261 679.8613348 C378.58242667 679.85707147 378.58242667 679.85707147 380.27760869 679.85272202 C384.00973608 679.84436402 387.74183247 679.84310593 391.47396851 679.84178162 C394.16851842 679.83721702 396.86306499 679.83225901 399.55761302 679.82681805 C405.42640787 679.81576213 411.29519843 679.80838969 417.16400146 679.80341911 C425.89071165 679.79601139 434.61740684 679.78292783 443.3441082 679.76867336 C458.02344199 679.74485682 472.70277844 679.72565516 487.38212204 679.70907402 C501.91872904 679.69263907 516.45533107 679.67415886 530.99193192 679.65294075 C532.34716041 679.65096434 532.34716041 679.65096434 533.72976726 679.648948 C538.31802283 679.64224601 542.90627835 679.63550742 547.49453385 679.62875474 C580.00204769 679.58097826 612.50956617 679.53779709 645.01708984 679.49731445 C676.59977557 679.45797304 708.18245745 679.41655257 739.76513672 679.37231445 C740.73847202 679.37095192 741.71180731 679.36958939 742.71463762 679.36818558 C752.48917671 679.35450033 762.26371573 679.34077278 772.03825472 679.32701423 C791.95052111 679.29898689 811.8627879 679.2712419 831.77505493 679.2436676 C832.69060997 679.2423994 833.60616501 679.2411312 834.54946414 679.23982458 C862.61503632 679.20096385 890.68060993 679.16329997 918.7461853 679.1268158 C919.54307468 679.1257794 920.33996407 679.12474301 921.16100161 679.12367522 C953.44066679 679.08171217 985.7203336 679.04101526 1018 679 C1018 586.6 1018 494.2 1018 399 C995.30476563 398.97421875 972.60953125 398.9484375 949.2265625 398.921875 C934.87108564 398.89671644 920.51562065 398.87057905 906.16015625 398.83984375 C898.61995504 398.82375175 891.07975338 398.8079083 883.53955078 398.79248047 C882.59452481 398.79053653 881.64949885 398.78859259 880.67583573 398.78658974 C865.42423368 398.75557916 850.17264667 398.73859733 834.92101903 398.72680578 C819.26573606 398.71438957 803.61053196 398.68687753 787.95529878 398.64538693 C778.29716841 398.62026501 768.63916886 398.60688177 758.98100536 398.60857043 C752.35572848 398.60860021 745.73058473 398.59395098 739.10535975 398.56783572 C735.28438487 398.55320531 731.463683 398.54497337 727.64268494 398.55419731 C723.49457335 398.56404121 719.34718117 398.54293642 715.1991272 398.51898193 C713.39851033 398.53062256 713.39851033 398.53062256 711.56151736 398.54249835 C701.54650192 398.44019486 693.08473222 396.15408625 685.6953125 389.09375 C680.1514163 382.24691045 679.26824004 373.92793886 679.55859375 365.3671875 C680.62602563 357.22447707 684.5502021 351.76133848 690.64453125 346.47265625 C698.25538769 341.71429327 705.23833266 341.56618846 713.99658203 341.60127258 C715.94856428 341.59130234 715.94856428 341.59130234 717.93998051 341.58113068 C721.53626217 341.5631585 725.13233677 341.56365586 728.72865272 341.56726015 C732.61269936 341.56788524 736.49667728 341.55125228 740.38069153 341.53674316 C747.10478223 341.51397367 753.82882118 341.5020749 760.552948 341.49761391 C770.27482523 341.49114831 779.99660899 341.46820371 789.71844852 341.44127061 C805.49246164 341.39801676 821.26647081 341.368042 837.04052734 341.34643555 C852.3611851 341.32542166 867.68181045 341.29810886 883.00244141 341.26245117 C883.95684589 341.26023766 884.91125036 341.25802415 885.89457619 341.25574356 C893.35893507 341.23838268 900.82329308 341.22065713 908.28765082 341.20281637 C944.85841377 341.11550094 981.42916228 341.0599861 1018 341 C1018 248.27 1018 155.54 1018 60 C701.86 60 385.72 60 60 60 Z " fill="#010101" transform="translate(72,59)"/>
</svg>
